<svg id="visual" viewBox="0 0 1920 1080" width="1920" height="1080" xmlns="http://www.w3.org/2000/svg" xmlns:xlink="http://www.w3.org/1999/xlink" version="1.1"><rect width="1920" height="1080" fill="#ffffff"></rect><g><g transform="translate(1676 1062)"><path d="M0 -196.7L170.4 -98.4L170.4 98.4L0 196.7L-170.4 98.4L-170.4 -98.4Z" fill="#0066FF"></path></g><g transform="translate(401 300)"><path d="M0 -100L86.6 -50L86.6 50L0 100L-86.6 50L-86.6 -50Z" fill="#0066FF"></path></g><g transform="translate(1506 492)"><path d="M0 -139L120.4 -69.5L120.4 69.5L0 139L-120.4 69.5L-120.4 -69.5Z" fill="#0066FF"></path></g><g transform="translate(285 881)"><path d="M0 -189L163.7 -94.5L163.7 94.5L0 189L-163.7 94.5L-163.7 -94.5Z" fill="#0066FF"></path></g><g transform="translate(778 1058)"><path d="M0 -111L96.1 -55.5L96.1 55.5L0 111L-96.1 55.5L-96.1 -55.5Z" fill="#0066FF"></path></g><g transform="translate(945 478)"><path d="M0 -141L122.1 -70.5L122.1 70.5L0 141L-122.1 70.5L-122.1 -70.5Z" fill="#0066FF"></path></g><g transform="translate(1227 150)"><path d="M0 -190L164.5 -95L164.5 95L0 190L-164.5 95L-164.5 -95Z" fill="#0066FF"></path></g><g transform="translate(1913 709)"><path d="M0 -126L109.1 -63L109.1 63L0 126L-109.1 63L-109.1 -63Z" fill="#0066FF"></path></g></g></svg>