<svg id="visual" viewBox="0 0 900 600" width="900" height="600" xmlns="http://www.w3.org/2000/svg" xmlns:xlink="http://www.w3.org/1999/xlink" version="1.1"><rect x="0" y="0" width="900" height="600" fill="#FBAE3C"></rect><defs><linearGradient id="grad1_0" x1="33.3%" y1="0%" x2="100%" y2="100%"><stop offset="20%" stop-color="#fbae3c" stop-opacity="1"></stop><stop offset="80%" stop-color="#fbae3c" stop-opacity="1"></stop></linearGradient></defs><defs><linearGradient id="grad2_0" x1="0%" y1="0%" x2="66.7%" y2="100%"><stop offset="20%" stop-color="#fbae3c" stop-opacity="1"></stop><stop offset="80%" stop-color="#fbae3c" stop-opacity="1"></stop></linearGradient></defs><g transform="translate(900, 0)"><path d="M0 486.7C-52.5 418.3 -105 349.8 -183.5 317.8C-262 285.8 -366.7 290.3 -421.5 243.4C-476.4 196.5 -481.6 98.2 -486.7 0L0 0Z" fill="#5fe7da"></path></g><g transform="translate(0, 600)"><path d="M0 -486.7C65.5 -440.9 131.1 -395.1 208 -360.3C284.9 -325.4 373.2 -301.6 421.5 -243.4C469.9 -185.2 478.3 -92.6 486.7 0L0 0Z" fill="#5fe7da"></path></g></svg>