<svg id="visual" viewBox="0 0 1920 1080" width="1920" height="1080" xmlns="http://www.w3.org/2000/svg" xmlns:xlink="http://www.w3.org/1999/xlink" version="1.1"><rect x="0" y="0" width="1920" height="1080" fill="#ffa818"></rect><defs><linearGradient id="grad1_0" x1="43.8%" y1="0%" x2="100%" y2="100%"><stop offset="14.444444444444446%" stop-color="#ffa818" stop-opacity="1"></stop><stop offset="85.55555555555554%" stop-color="#ffa818" stop-opacity="1"></stop></linearGradient></defs><defs><linearGradient id="grad2_0" x1="0%" y1="0%" x2="56.3%" y2="100%"><stop offset="14.444444444444446%" stop-color="#ffa818" stop-opacity="1"></stop><stop offset="85.55555555555554%" stop-color="#ffa818" stop-opacity="1"></stop></linearGradient></defs><g transform="translate(1920, 0)"><path d="M0 972C-137.3 967.4 -274.6 962.7 -372 898C-469.3 833.3 -526.8 708.5 -617.3 617.3C-707.9 526.1 -831.5 468.5 -896.2 371.2C-960.8 273.9 -966.4 137 -972 0L0 0Z" fill="#3ce6fa"></path></g><g transform="translate(0, 1080)"><path d="M0 -972C123.5 -941.1 247 -910.1 355.5 -858.3C464 -806.5 557.5 -733.7 652.7 -652.7C747.8 -571.6 844.5 -482.1 898 -372C951.5 -261.8 961.8 -130.9 972 0L0 0Z" fill="#3ce6fa"></path></g></svg>