<svg id="visual" viewBox="0 0 1920 1080" width="1920" height="1080" xmlns="http://www.w3.org/2000/svg" xmlns:xlink="http://www.w3.org/1999/xlink" version="1.1"><rect width="1920" height="1080" fill="#00d2eb"></rect><g><g transform="translate(1027 1002)"><path d="M190.4 -57C216.3 17.6 185.6 115.5 122.2 159.5C58.8 203.5 -37.4 193.6 -104.3 144.7C-171.2 95.8 -208.9 7.9 -186.6 -61.9C-164.4 -131.6 -82.2 -183.1 0.1 -183.1C82.3 -183.1 164.6 -131.7 190.4 -57Z" stroke="#ffffff" fill="none" stroke-width="24"></path></g><g transform="translate(96 257)"><path d="M138.8 -46.4C157.2 11.5 133.8 81.7 84.6 117.7C35.5 153.7 -39.4 155.6 -90.5 119.6C-141.5 83.7 -168.6 10 -149.6 -48.8C-130.5 -107.6 -65.3 -151.6 -2.5 -150.8C60.2 -150 120.4 -104.3 138.8 -46.4Z" stroke="#ffffff" fill="none" stroke-width="24"></path></g><g transform="translate(1565 781)"><path d="M86.7 -29.8C98.7 8.7 85.3 53.9 55.8 74.9C26.2 95.9 -19.4 92.8 -53.4 69.1C-87.4 45.5 -109.7 1.3 -98.8 -35.7C-88 -72.6 -44 -102.4 -3.3 -101.3C37.3 -100.3 74.7 -68.3 86.7 -29.8Z" stroke="#ffffff" fill="none" stroke-width="24"></path></g><g transform="translate(945 332)"><path d="M166.2 -46.2C191 22.6 170.2 114.1 114.9 153C59.7 191.9 -30 178.3 -87.6 133.4C-145.2 88.5 -170.8 12.4 -150.8 -49.7C-130.9 -111.7 -65.4 -159.6 2.6 -160.5C70.6 -161.3 141.3 -115.1 166.2 -46.2Z" stroke="#ffffff" fill="none" stroke-width="24"></path></g></g></svg>