<svg id="visual" viewBox="0 0 900 600" width="900" height="600" xmlns="http://www.w3.org/2000/svg" xmlns:xlink="http://www.w3.org/1999/xlink" version="1.1"><rect width="900" height="600" fill="#00d4ff"></rect><g><g transform="translate(777 481)"><path d="M106.1 -37.2C120 8.4 101.8 61.7 65.1 88C28.4 114.3 -26.8 113.5 -62.4 87.3C-98.1 61.1 -114.3 9.3 -100.6 -35.9C-86.9 -81.1 -43.5 -119.7 1.3 -120.2C46.1 -120.6 92.1 -82.7 106.1 -37.2Z" stroke="#f49649" fill="none" stroke-width="20"></path></g><g transform="translate(445 71)"><path d="M76.9 -21.7C89.6 13.8 82.7 59.1 55.4 79.6C28.2 100.2 -19.4 96.2 -52.2 72.2C-85 48.3 -103.2 4.4 -92 -29.1C-80.8 -62.6 -40.4 -85.9 -4.1 -84.5C32.2 -83.2 64.3 -57.3 76.9 -21.7Z" stroke="#f49649" fill="none" stroke-width="20"></path></g><g transform="translate(432 418)"><path d="M97.1 -28.1C111.1 11.5 97.5 63.5 63 89C28.6 114.6 -26.7 113.7 -60.7 87.9C-94.8 62.2 -107.6 11.5 -93.9 -27.6C-80.3 -66.8 -40.1 -94.5 0.7 -94.7C41.6 -95 83.1 -67.7 97.1 -28.1Z" stroke="#f49649" fill="none" stroke-width="20"></path></g></g></svg>